<svg id="visual" viewBox="0 0 900 600" width="900" height="600" xmlns="http://www.w3.org/2000/svg" xmlns:xlink="http://www.w3.org/1999/xlink" version="1.1"><path d="M0 541L6.5 541.7C13 542.3 26 543.7 39 546.2C52 548.7 65 552.3 78 555C91 557.7 104 559.3 117.2 557.3C130.3 555.3 143.7 549.7 156.8 546.8C170 544 183 544 196 544.7C209 545.3 222 546.7 235 548.2C248 549.7 261 551.3 274 554.5C287 557.7 300 562.3 313 561.3C326 560.3 339 553.7 352 550.2C365 546.7 378 546.3 391 545.2C404 544 417 542 430.2 541.7C443.3 541.3 456.7 542.7 469.8 542.8C483 543 496 542 509 542C522 542 535 543 548 544.2C561 545.3 574 546.7 587 546.5C600 546.3 613 544.7 626 544.3C639 544 652 545 665 546.3C678 547.7 691 549.3 704 552.3C717 555.3 730 559.7 743.2 562.5C756.3 565.3 769.7 566.7 782.8 565.8C796 565 809 562 822 560.7C835 559.3 848 559.7 861 557C874 554.3 887 548.7 893.5 545.8L900 543L900 601L893.5 601C887 601 874 601 861 601C848 601 835 601 822 601C809 601 796 601 782.8 601C769.7 601 756.3 601 743.2 601C730 601 717 601 704 601C691 601 678 601 665 601C652 601 639 601 626 601C613 601 600 601 587 601C574 601 561 601 548 601C535 601 522 601 509 601C496 601 483 601 469.8 601C456.7 601 443.3 601 430.2 601C417 601 404 601 391 601C378 601 365 601 352 601C339 601 326 601 313 601C300 601 287 601 274 601C261 601 248 601 235 601C222 601 209 601 196 601C183 601 170 601 156.8 601C143.7 601 130.3 601 117.2 601C104 601 91 601 78 601C65 601 52 601 39 601C26 601 13 601 6.5 601L0 601Z" fill="#4909c2"></path><path d="M0 583L6.5 579.5C13 576 26 569 39 569C52 569 65 576 78 576.2C91 576.3 104 569.7 117.2 568.8C130.3 568 143.7 573 156.8 573.3C170 573.7 183 569.3 196 569C209 568.7 222 572.3 235 574.8C248 577.3 261 578.7 274 576.2C287 573.7 300 567.3 313 565C326 562.7 339 564.3 352 568C365 571.7 378 577.3 391 576.3C404 575.3 417 567.7 430.2 565.7C443.3 563.7 456.7 567.3 469.8 567.7C483 568 496 565 509 562.5C522 560 535 558 548 559.7C561 561.3 574 566.7 587 566.8C600 567 613 562 626 560.5C639 559 652 561 665 565C678 569 691 575 704 576.3C717 577.7 730 574.3 743.2 573.3C756.3 572.3 769.7 573.7 782.8 573.8C796 574 809 573 822 574.2C835 575.3 848 578.7 861 578.2C874 577.7 887 573.3 893.5 571.2L900 569L900 601L893.5 601C887 601 874 601 861 601C848 601 835 601 822 601C809 601 796 601 782.8 601C769.7 601 756.3 601 743.2 601C730 601 717 601 704 601C691 601 678 601 665 601C652 601 639 601 626 601C613 601 600 601 587 601C574 601 561 601 548 601C535 601 522 601 509 601C496 601 483 601 469.8 601C456.7 601 443.3 601 430.2 601C417 601 404 601 391 601C378 601 365 601 352 601C339 601 326 601 313 601C300 601 287 601 274 601C261 601 248 601 235 601C222 601 209 601 196 601C183 601 170 601 156.8 601C143.7 601 130.3 601 117.2 601C104 601 91 601 78 601C65 601 52 601 39 601C26 601 13 601 6.5 601L0 601Z" fill="#3e07a5"></path><path d="M0 590L6.5 589.2C13 588.3 26 586.7 39 585.5C52 584.3 65 583.7 78 582.3C91 581 104 579 117.2 578.7C130.3 578.3 143.7 579.7 156.8 581.5C170 583.3 183 585.7 196 585C209 584.3 222 580.7 235 581.5C248 582.3 261 587.7 274 590.7C287 593.7 300 594.3 313 594.5C326 594.7 339 594.3 352 591.2C365 588 378 582 391 580C404 578 417 580 430.2 583.5C443.3 587 456.7 592 469.8 593.2C483 594.3 496 591.7 509 590.7C522 589.7 535 590.3 548 590.7C561 591 574 591 587 589C600 587 613 583 626 580.5C639 578 652 577 665 575.7C678 574.3 691 572.7 704 572.2C717 571.7 730 572.3 743.2 574C756.3 575.7 769.7 578.3 782.8 578.8C796 579.3 809 577.7 822 576.3C835 575 848 574 861 575.5C874 577 887 581 893.5 583L900 585L900 601L893.5 601C887 601 874 601 861 601C848 601 835 601 822 601C809 601 796 601 782.8 601C769.7 601 756.3 601 743.2 601C730 601 717 601 704 601C691 601 678 601 665 601C652 601 639 601 626 601C613 601 600 601 587 601C574 601 561 601 548 601C535 601 522 601 509 601C496 601 483 601 469.8 601C456.7 601 443.3 601 430.2 601C417 601 404 601 391 601C378 601 365 601 352 601C339 601 326 601 313 601C300 601 287 601 274 601C261 601 248 601 235 601C222 601 209 601 196 601C183 601 170 601 156.8 601C143.7 601 130.3 601 117.2 601C104 601 91 601 78 601C65 601 52 601 39 601C26 601 13 601 6.5 601L0 601Z" fill="#330688"></path></svg>