<svg id="visual" viewBox="0 0 900 600" width="900" height="600" xmlns="http://www.w3.org/2000/svg" xmlns:xlink="http://www.w3.org/1999/xlink" version="1.1"><path d="M0 359L6.5 379.5C13 400 26 441 39 422.2C52 403.3 65 324.7 78 284.7C91 244.7 104 243.3 117.2 246C130.3 248.7 143.7 255.3 156.8 306.7C170 358 183 454 196 504.3C209 554.7 222 559.3 235 550.5C248 541.7 261 519.3 274 512.8C287 506.3 300 515.7 313 485.7C326 455.7 339 386.3 352 329C365 271.7 378 226.3 391 237.2C404 248 417 315 430.2 339C443.3 363 456.7 344 469.8 350C483 356 496 387 509 420.5C522 454 535 490 548 469.2C561 448.3 574 370.7 587 325.8C600 281 613 269 626 311.3C639 353.7 652 450.3 665 472.5C678 494.7 691 442.3 704 450.3C717 458.3 730 526.7 743.2 516.2C756.3 505.7 769.7 416.3 782.8 396.7C796 377 809 427 822 373.8C835 320.7 848 164.3 861 153C874 141.7 887 275.3 893.5 342.2L900 409L900 0L893.5 0C887 0 874 0 861 0C848 0 835 0 822 0C809 0 796 0 782.8 0C769.7 0 756.3 0 743.2 0C730 0 717 0 704 0C691 0 678 0 665 0C652 0 639 0 626 0C613 0 600 0 587 0C574 0 561 0 548 0C535 0 522 0 509 0C496 0 483 0 469.8 0C456.7 0 443.3 0 430.2 0C417 0 404 0 391 0C378 0 365 0 352 0C339 0 326 0 313 0C300 0 287 0 274 0C261 0 248 0 235 0C222 0 209 0 196 0C183 0 170 0 156.8 0C143.7 0 130.3 0 117.2 0C104 0 91 0 78 0C65 0 52 0 39 0C26 0 13 0 6.5 0L0 0Z" fill="#4909c2"></path><path d="M0 5L6.5 68.3C13 131.7 26 258.3 39 299.3C52 340.3 65 295.7 78 302.3C91 309 104 367 117.2 328.5C130.3 290 143.7 155 156.8 100.3C170 45.7 183 71.3 196 82.3C209 93.3 222 89.7 235 75.5C248 61.3 261 36.7 274 50.5C287 64.3 300 116.7 313 162.8C326 209 339 249 352 234.8C365 220.7 378 152.3 391 174.2C404 196 417 308 430.2 360C443.3 412 456.7 404 469.8 359.8C483 315.7 496 235.3 509 212.5C522 189.7 535 224.3 548 232.2C561 240 574 221 587 242.7C600 264.3 613 326.7 626 296.7C639 266.7 652 144.3 665 79.7C678 15 691 8 704 65.3C717 122.7 730 244.3 743.2 297.5C756.3 350.7 769.7 335.3 782.8 325.8C796 316.3 809 312.7 822 293.7C835 274.7 848 240.3 861 247C874 253.7 887 301.3 893.5 325.2L900 349L900 0L893.5 0C887 0 874 0 861 0C848 0 835 0 822 0C809 0 796 0 782.8 0C769.7 0 756.3 0 743.2 0C730 0 717 0 704 0C691 0 678 0 665 0C652 0 639 0 626 0C613 0 600 0 587 0C574 0 561 0 548 0C535 0 522 0 509 0C496 0 483 0 469.8 0C456.7 0 443.3 0 430.2 0C417 0 404 0 391 0C378 0 365 0 352 0C339 0 326 0 313 0C300 0 287 0 274 0C261 0 248 0 235 0C222 0 209 0 196 0C183 0 170 0 156.8 0C143.7 0 130.3 0 117.2 0C104 0 91 0 78 0C65 0 52 0 39 0C26 0 13 0 6.5 0L0 0Z" fill="#3e07a5"></path><path d="M0 117L6.5 145.8C13 174.7 26 232.3 39 262.3C52 292.3 65 294.7 78 264C91 233.3 104 169.7 117.2 122.7C130.3 75.7 143.7 45.3 156.8 30.8C170 16.3 183 17.7 196 52.7C209 87.7 222 156.3 235 197.2C248 238 261 251 274 222.7C287 194.3 300 124.7 313 97.5C326 70.3 339 85.7 352 116.5C365 147.3 378 193.7 391 216.7C404 239.7 417 239.3 430.2 230.2C443.3 221 456.7 203 469.8 164.3C483 125.7 496 66.3 509 56.8C522 47.3 535 87.7 548 93.2C561 98.7 574 69.3 587 79C600 88.7 613 137.3 626 168.5C639 199.7 652 213.3 665 211.2C678 209 691 191 704 174.7C717 158.3 730 143.7 743.2 140.3C756.3 137 769.7 145 782.8 168.5C796 192 809 231 822 245.3C835 259.7 848 249.3 861 209.7C874 170 887 101 893.5 66.5L900 32L900 0L893.5 0C887 0 874 0 861 0C848 0 835 0 822 0C809 0 796 0 782.8 0C769.7 0 756.3 0 743.2 0C730 0 717 0 704 0C691 0 678 0 665 0C652 0 639 0 626 0C613 0 600 0 587 0C574 0 561 0 548 0C535 0 522 0 509 0C496 0 483 0 469.8 0C456.7 0 443.3 0 430.2 0C417 0 404 0 391 0C378 0 365 0 352 0C339 0 326 0 313 0C300 0 287 0 274 0C261 0 248 0 235 0C222 0 209 0 196 0C183 0 170 0 156.8 0C143.7 0 130.3 0 117.2 0C104 0 91 0 78 0C65 0 52 0 39 0C26 0 13 0 6.5 0L0 0Z" fill="#330688"></path></svg>