<svg id="visual" viewBox="0 0 900 600" width="900" height="600" xmlns="http://www.w3.org/2000/svg" xmlns:xlink="http://www.w3.org/1999/xlink" version="1.1"><path d="M0 53L6.5 51.7C13 50.3 26 47.7 39 45.2C52 42.7 65 40.3 78 39C91 37.7 104 37.3 117.2 36C130.3 34.7 143.7 32.3 156.8 31.2C170 30 183 30 196 34.5C209 39 222 48 235 51.2C248 54.3 261 51.7 274 50.7C287 49.7 300 50.3 313 47.3C326 44.3 339 37.7 352 37.5C365 37.3 378 43.7 391 45.3C404 47 417 44 430.2 42.7C443.3 41.3 456.7 41.7 469.8 43C483 44.3 496 46.7 509 48.7C522 50.7 535 52.3 548 49.5C561 46.7 574 39.3 587 38.5C600 37.7 613 43.3 626 46.5C639 49.7 652 50.3 665 51.2C678 52 691 53 704 49.5C717 46 730 38 743.2 36.2C756.3 34.3 769.7 38.7 782.8 38.7C796 38.7 809 34.3 822 33.7C835 33 848 36 861 36.5C874 37 887 35 893.5 34L900 33L900 0L893.5 0C887 0 874 0 861 0C848 0 835 0 822 0C809 0 796 0 782.8 0C769.7 0 756.3 0 743.2 0C730 0 717 0 704 0C691 0 678 0 665 0C652 0 639 0 626 0C613 0 600 0 587 0C574 0 561 0 548 0C535 0 522 0 509 0C496 0 483 0 469.8 0C456.7 0 443.3 0 430.2 0C417 0 404 0 391 0C378 0 365 0 352 0C339 0 326 0 313 0C300 0 287 0 274 0C261 0 248 0 235 0C222 0 209 0 196 0C183 0 170 0 156.8 0C143.7 0 130.3 0 117.2 0C104 0 91 0 78 0C65 0 52 0 39 0C26 0 13 0 6.5 0L0 0Z" fill="#4909c2"></path><path d="M0 19L6.5 21.2C13 23.3 26 27.7 39 27C52 26.3 65 20.7 78 21.3C91 22 104 29 117.2 33.2C130.3 37.3 143.7 38.7 156.8 38.2C170 37.7 183 35.3 196 33.7C209 32 222 31 235 29.7C248 28.3 261 26.7 274 28.3C287 30 300 35 313 35.2C326 35.3 339 30.7 352 29.2C365 27.7 378 29.3 391 32.2C404 35 417 39 430.2 36.7C443.3 34.3 456.7 25.7 469.8 21.5C483 17.3 496 17.7 509 18.5C522 19.3 535 20.7 548 22.3C561 24 574 26 587 25.3C600 24.7 613 21.3 626 21.3C639 21.3 652 24.7 665 28.7C678 32.7 691 37.3 704 39.7C717 42 730 42 743.2 39.7C756.3 37.3 769.7 32.7 782.8 30.3C796 28 809 28 822 29.7C835 31.3 848 34.7 861 35C874 35.3 887 32.7 893.5 31.3L900 30L900 0L893.5 0C887 0 874 0 861 0C848 0 835 0 822 0C809 0 796 0 782.8 0C769.7 0 756.3 0 743.2 0C730 0 717 0 704 0C691 0 678 0 665 0C652 0 639 0 626 0C613 0 600 0 587 0C574 0 561 0 548 0C535 0 522 0 509 0C496 0 483 0 469.8 0C456.7 0 443.3 0 430.2 0C417 0 404 0 391 0C378 0 365 0 352 0C339 0 326 0 313 0C300 0 287 0 274 0C261 0 248 0 235 0C222 0 209 0 196 0C183 0 170 0 156.8 0C143.7 0 130.3 0 117.2 0C104 0 91 0 78 0C65 0 52 0 39 0C26 0 13 0 6.5 0L0 0Z" fill="#3e07a5"></path><path d="M0 23L6.5 23.2C13 23.3 26 23.7 39 20.5C52 17.3 65 10.7 78 9.2C91 7.7 104 11.3 117.2 14.7C130.3 18 143.7 21 156.8 21C170 21 183 18 196 17.3C209 16.7 222 18.3 235 16.2C248 14 261 8 274 6.5C287 5 300 8 313 12C326 16 339 21 352 23.7C365 26.3 378 26.7 391 24.7C404 22.7 417 18.3 430.2 13.8C443.3 9.3 456.7 4.7 469.8 3C483 1.3 496 2.7 509 3.3C522 4 535 4 548 3.3C561 2.7 574 1.3 587 1.2C600 1 613 2 626 3C639 4 652 5 665 6.7C678 8.3 691 10.7 704 10.8C717 11 730 9 743.2 8.8C756.3 8.7 769.7 10.3 782.8 11.7C796 13 809 14 822 12.3C835 10.7 848 6.3 861 4C874 1.7 887 1.3 893.5 1.2L900 1L900 0L893.5 0C887 0 874 0 861 0C848 0 835 0 822 0C809 0 796 0 782.8 0C769.7 0 756.3 0 743.2 0C730 0 717 0 704 0C691 0 678 0 665 0C652 0 639 0 626 0C613 0 600 0 587 0C574 0 561 0 548 0C535 0 522 0 509 0C496 0 483 0 469.8 0C456.7 0 443.3 0 430.2 0C417 0 404 0 391 0C378 0 365 0 352 0C339 0 326 0 313 0C300 0 287 0 274 0C261 0 248 0 235 0C222 0 209 0 196 0C183 0 170 0 156.8 0C143.7 0 130.3 0 117.2 0C104 0 91 0 78 0C65 0 52 0 39 0C26 0 13 0 6.5 0L0 0Z" fill="#330688"></path></svg>