<svg id="visual" viewBox="0 0 900 600" width="900" height="600" xmlns="http://www.w3.org/2000/svg" xmlns:xlink="http://www.w3.org/1999/xlink" version="1.1"><path d="M0 76L11.5 120.7C23 165.3 46 254.7 69 253.3C92 252 115 160 138.2 167.3C161.3 174.7 184.7 281.3 207.8 310.7C231 340 254 292 277 306.3C300 320.7 323 397.3 346 384.8C369 372.3 392 270.7 415.2 213.2C438.3 155.7 461.7 142.3 484.8 196.8C508 251.3 531 373.7 554 394.3C577 415 600 334 623 336.5C646 339 669 425 692.2 480C715.3 535 738.7 559 761.8 556.7C785 554.3 808 525.7 831 462.7C854 399.7 877 302.3 888.5 253.7L900 205L900 0L888.5 0C877 0 854 0 831 0C808 0 785 0 761.8 0C738.7 0 715.3 0 692.2 0C669 0 646 0 623 0C600 0 577 0 554 0C531 0 508 0 484.8 0C461.7 0 438.3 0 415.2 0C392 0 369 0 346 0C323 0 300 0 277 0C254 0 231 0 207.8 0C184.7 0 161.3 0 138.2 0C115 0 92 0 69 0C46 0 23 0 11.5 0L0 0Z" fill="#4909c2"></path><path d="M0 439L11.5 419.7C23 400.3 46 361.7 69 351.8C92 342 115 361 138.2 318C161.3 275 184.7 170 207.8 161.7C231 153.3 254 241.7 277 294.3C300 347 323 364 346 348.8C369 333.7 392 286.3 415.2 273.5C438.3 260.7 461.7 282.3 484.8 300.8C508 319.3 531 334.7 554 323.5C577 312.3 600 274.7 623 222.8C646 171 669 105 692.2 108C715.3 111 738.7 183 761.8 251.3C785 319.7 808 384.3 831 348.8C854 313.3 877 177.7 888.5 109.8L900 42L900 0L888.5 0C877 0 854 0 831 0C808 0 785 0 761.8 0C738.7 0 715.3 0 692.2 0C669 0 646 0 623 0C600 0 577 0 554 0C531 0 508 0 484.8 0C461.7 0 438.3 0 415.2 0C392 0 369 0 346 0C323 0 300 0 277 0C254 0 231 0 207.8 0C184.7 0 161.3 0 138.2 0C115 0 92 0 69 0C46 0 23 0 11.5 0L0 0Z" fill="#3e07a5"></path><path d="M0 143L11.5 162.3C23 181.7 46 220.3 69 219.2C92 218 115 177 138.2 178.5C161.3 180 184.7 224 207.8 239.8C231 255.7 254 243.3 277 208.8C300 174.3 323 117.7 346 108.7C369 99.7 392 138.3 415.2 176C438.3 213.7 461.7 250.3 484.8 269.3C508 288.3 531 289.7 554 281C577 272.3 600 253.7 623 233.3C646 213 669 191 692.2 196.8C715.3 202.7 738.7 236.3 761.8 235.7C785 235 808 200 831 185.3C854 170.7 877 176.3 888.5 179.2L900 182L900 0L888.5 0C877 0 854 0 831 0C808 0 785 0 761.8 0C738.7 0 715.3 0 692.2 0C669 0 646 0 623 0C600 0 577 0 554 0C531 0 508 0 484.8 0C461.7 0 438.3 0 415.2 0C392 0 369 0 346 0C323 0 300 0 277 0C254 0 231 0 207.8 0C184.7 0 161.3 0 138.2 0C115 0 92 0 69 0C46 0 23 0 11.5 0L0 0Z" fill="#330688"></path></svg>